<?xml version="1.0" encoding="UTF-8"?>
<svg id="Layer_2" data-name="Layer 2" xmlns="http://www.w3.org/2000/svg" viewBox="0 0 83.42 83.4">
  <defs>
    <style>
      .cls-1 {
        fill: #2350a3;
      }

      .cls-2 {
        fill: #30aa49;
      }
    </style>
  </defs>
  <g id="Layer_1-2" data-name="Layer 1">
    <g>
      <path class="cls-1" d="M75.07,45.91c-2.04-1.23-4.06-2.51-6.14-3.68-.86-.49-1.12-1.05-1.11-2,.05-3.98.02-7.98.02-11.96,0-1.7-.53-2.22-2.25-2.22-.6,0-1.2-.03-1.79,0-.63.04-.88-.16-.86-.83.05-1.25.02-2.49,0-3.74,0-1.33-.62-1.94-1.95-1.95s-2.65-.02-3.98,0c-.56,0-.78-.19-.77-.76.03-1.24.03-2.49,0-3.73-.03-1.39-.7-2.03-2.08-2.03-2.18,0-4.34-.04-6.51,0-.82.02-1-.26-.99-1.02.03-3.33.02-6.67,0-10.01,0-1.38-.61-1.99-1.98-1.99-1.9,0-3.8,0-5.69,0-1.66,0-2.2.54-2.2,2.19,0,3.34-.02,6.67,0,10.01,0,.64-.21.84-.84.84-2.2-.03-4.4-.02-6.59,0-1.48,0-2.12.63-2.15,2.12-.02,1.17-.03,2.33,0,3.49.02.66-.17.94-.87.9-1.17-.04-2.33,0-3.49,0-1.84,0-2.34.49-2.34,2.29,0,1.17-.02,2.33,0,3.49,0,.52-.17.75-.71.73-.68-.03-1.36,0-2.03,0-1.59,0-2.15.57-2.15,2.15,0,4.18-.02,8.36,0,12.54,0,.59-.2.94-.7,1.23-2.16,1.3-4.32,2.61-6.47,3.91-1.52.93-1.71,1.44-1.19,3.16,2.61,8.78,5.22,17.57,7.84,26.35,0,0,0,.02,0,.03l.31.12s1.86,1.24,3.87,1.91c-.03-.1-.08-.22-.11-.34-2.74-9.25-5.48-18.5-8.25-27.74-.19-.64-.08-.95.5-1.3,9.24-5.57,18.47-11.18,27.71-16.76.24-.14.48-.48.77-.28.24.15.11.51.11.77,0,7.18,0,14.36,0,21.56s0,14.32,0,21.48v.21c.35.22,1.71,1.03,3.37,1.73v-22.57c0-7.45,0-14.92,0-22.38,0-.28-.16-.66.14-.83.28-.15.53.17.77.33,9.24,5.58,18.47,11.19,27.71,16.76.53.33.65.62.47,1.23-2.49,8.34-4.96,16.67-7.43,25.02-.02.1-.05.19-.09.26.73.34,1.88.85,3.18,1.37,0-.04.02-.1.03-.15,2.69-8.96,5.34-17.93,8.01-26.9.48-1.59.25-2.15-1.17-3.02ZM41.02,3.36c2.31,0,2.31-.02,2.31,2.29v2.6c0,1.34-.02,2.67,0,3.99,0,.53-.13.76-.73.78-2.41.07-2.41.08-2.41-2.34,0-2.15.02-4.29,0-6.43-.01-.64.13-.9.84-.9ZM32.81,16.39h9.02c3.34,0,6.67.03,10,0,.77,0,.97.25.97.98-.02,2.18,0,2.18-2.2,2.18-6.28,0-12.57-.02-18.86,0-.84,0-1.07-.25-1.05-1.06.04-2.09,0-2.1,2.11-2.1ZM22.26,37.53c-.88.53-1.76,1.06-2.63,1.61-.47.29-.61.15-.61-.36v-8.71c0-.42.12-.65.6-.65h15.77s0,.1.02.15c-4.39,2.64-8.76,5.3-13.15,7.95ZM41.67,26.04c-5.6,0-11.18,0-16.76,0-.77,0-1.05-.19-1.02-.99.04-2.15,0-2.15,2.2-2.15h32.39q1.12,0,1.12,1.1,0,2.03-2.06,2.03h-15.87ZM64.48,38.78c0,.85-.41.47-.75.26-4.47-2.71-8.95-5.42-13.43-8.13-.74-.45-1.47-.9-2.21-1.35,0-.05,0-.1.02-.14,5.24,0,10.46,0,15.69,0,.48,0,.68.17.68.66-.02,2.9-.02,5.81,0,8.71Z"/>
      <path class="cls-2" d="M83.42,74.6v1.31c-.96,1.25-2.24,2.13-3.48,3.05-2.87,2.12-6.1,2.8-9.62,2.2-1.6-.27-3.04-.98-4.5-1.64-3.22-1.49-6.42-1.62-9.59.16-.81.46-1.63.85-2.47,1.25-3.46,1.68-6.98,1.84-10.53.32-1.42-.61-2.81-1.29-4.2-1.96-2.23-1.09-4.52-1.2-6.87-.46-1.36.42-2.61,1.08-3.86,1.72-2.7,1.37-5.51,1.92-8.5,1.25-1.92-.42-3.7-1.22-5.49-2.02-2.15-.97-4.3-.87-6.46,0-2.08.83-3.73,2.28-5.49,3.61h-1.3c-1.38-1.07-1.41-2.15-.08-3.26,2.2-1.84,4.5-3.49,7.36-4.17,2.06-.49,4.09-.33,6.13.13.23.05.4.09.53.1h0s2.51,1.68,5.02,2.27c.03,0,.05,0,.08.02.25.09.59.12,1.09.16,2.67.26,4.93-.78,7.14-2.04,3.44-1.95,7.03-2.22,10.77-1.08.17.05.32.1.44.13h0s2.98,1.91,5.98,2.7c.15.04.29.08.45.11,1.11.29,2.25.4,3.45.25,1.63-.22,3.07-.93,4.46-1.7,3.18-1.78,6.53-2.63,10.17-1.95.03,0,.05,0,.09,0,.66.3,2.6,1.2,4.71,2,.17.08.35.14.52.21,3.72,1.41,7,.5,9.97-2.18.33-.29.65-.58.99-.85,1.23-1.03,2.09-.94,3.09.34Z"/>
      <path class="cls-1" d="M52.44,43.01c0-1.12,1.02-1.9,2.13-1.6.31.09.6.25.88.42,3.23,1.99,6.46,3.98,9.69,5.97.73.45,1.31,1.01,1.16,1.96-.2,1.2-1.44,1.79-2.56,1.18-1.02-.56-2-1.2-2.99-1.81-2.4-1.48-4.8-2.96-7.2-4.44-.63-.38-1.12-.86-1.1-1.67Z"/>
      <path class="cls-1" d="M50.25,39.63c.01.9-.73,1.64-1.65,1.65-.92,0-1.67-.71-1.69-1.62-.03-.96.7-1.73,1.65-1.74.93,0,1.68.74,1.7,1.7Z"/>
      <path class="cls-1" d="M19.88,51.21c-.7-.05-1.26-.32-1.55-.99-.3-.7-.16-1.33.37-1.86.21-.21.45-.39.71-.55,3.18-2.02,6.37-4.03,9.56-6.03.27-.17.57-.32.87-.42.73-.24,1.5.06,1.91.7s.35,1.44-.2,2.02c-.22.23-.49.43-.76.6-3.23,2.04-6.46,4.08-9.69,6.12-.37.24-.76.43-1.22.41Z"/>
      <path class="cls-1" d="M35.85,41.14c-.89,0-1.72-.81-1.72-1.69s.79-1.65,1.67-1.67c.89-.02,1.73.78,1.75,1.67.02.92-.74,1.68-1.69,1.69Z"/>
    </g>
  </g>
</svg>