<?xml version="1.0" encoding="UTF-8"?>
<svg id="Layer_2" data-name="Layer 2" xmlns="http://www.w3.org/2000/svg" viewBox="0 0 94.08 86.97">
  <defs>
    <style>
      .cls-1 {
        fill: #2350a3;
      }

      .cls-2 {
        fill: #30aa49;
      }
    </style>
  </defs>
  <g id="Layer_1-2" data-name="Layer 1">
    <g>
      <path class="cls-1" d="M88.8,56.85v-9.4h3.94v-2.76h-6.88c-1.17-7.51-2.31-14.96-3.48-22.47-.93.15-1.76.28-2.66.44,1.13,7.39,2.25,14.68,3.39,22.03h-3.11c-1.67-10.76-3.32-21.46-4.97-32.2-3.41,0-6.69-.01-9.96.03-.24,0-.63.35-.68.59-1.19,7.57-2.36,15.16-3.53,22.73-.45,2.94-.9,5.87-1.37,8.85h-3.1c1.82-11.78,3.62-23.46,5.44-35.25h13.82c2.04,0,2.03,0,2.33,2.04.41,2.78.85,5.56,1.31,8.46.93-.16,1.79-.32,2.66-.47-.66-4.31-1.31-8.49-1.97-12.74h-8.86V0h-2.76v6.73h-1.09c-2.33,0-4.66,0-6.98-.01-.45,0-.8.01-.89.63-.84,5.62-1.71,11.22-2.57,16.82-.44,2.84-.89,5.68-1.32,8.51h-2.12c-.13-1.11-.27-2.15-.37-3.18-.12-1.05-.23-2.1-.33-3.18.47-.03.83-.06,1.21-.09v-2.64c-.52-.03-1.01-.06-1.56-.09-.11-1.01-.25-1.98-.3-2.94-.04-.92-.54-1.79.24-2.76.36-.47.06-1.47.06-2.25-.33-.06-.6-.11-.92-.16-.23-2.06-.47-4.1-.66-6.14-.06-.63-.25-.9-.95-.89-1.97.04-3.92.01-5.89.01h-3.82c-.27,2.39-.54,4.7-.81,7.02-.32.06-.57.11-.93.16.35.96-.54,2.06.59,2.84.04.03.01.16,0,.27-.2,1.61-.37,3.22-.57,4.85-.56.03-1.07.06-1.55.09v2.64c.45.04.83.08,1.25.12-.24,2.04-.47,4.03-.72,6.17-9.94-7.99-19.74-15.88-29.6-23.81-2.62,2.45-5.18,4.85-7.75,7.26v.2c.23.18.48.35.68.57,6.97,7.79,13.94,15.59,20.89,23.4,1.32,1.49,2.64,2.96,3.84,4.31-.69,1.04-.25,2-.39,3.03h4.03v9.4h-5.28v8.77h8.03c0,4.07.01,8.03-.01,11.98.99-.49,1.92-.89,2.79-1.14v-10.83h8.03v10.65c.08.01.16.03.24.04.09.03,1.04.28,2.51,1.02v-10.68c3.74,2.3,7.31,4.51,11,6.77-2.94,1.82-5.77,3.58-8.58,5.3.75.48,1.44.99,2.12,1.53l.25.21c2.72-1.68,5.42-3.35,8.13-5.05.47-.3.8-.35,1.29-.03,1.85,1.2,3.72,2.33,5.65,3.51l.48-.27c.33-.21,1.14-.71,2.27-1.23-2.1-1.29-4.2-2.6-6.45-3.98,3.65-2.25,7.21-4.46,10.9-6.76v9.25c.89-.18,1.76-.27,2.63-.27h.16v-10.04h8.1v4.99h2.74v-5.09h8.03v-8.71h-5.29ZM8.33,21.23c-1.49-1.67-2.97-3.34-4.54-5.08,1.07-1.01,2.06-1.94,3.15-2.96.54,2.74,1.05,5.33,1.56,7.91-.06.05-.12.08-.18.12ZM9.86,13.9c2.16,1.74,4.11,3.31,6.13,4.93-1.44,1.35-2.84,2.66-4.36,4.07-.59-3.01-1.16-5.87-1.77-9ZM12.46,25.85c1.46-1.37,2.87-2.69,4.44-4.16.24,3.36.47,6.5.71,9.93-1.83-2.04-3.47-3.88-5.15-5.77ZM19.63,21.75c2.1,1.7,4.04,3.24,6.05,4.87-1.77,1.67-3.48,3.26-5.35,5-.24-3.36-.47-6.48-.71-9.87ZM26.37,41.44c-1.95-2.19-3.8-4.27-5.71-6.4,1.88-1.76,3.72-3.48,5.71-5.35v11.74ZM74.75,28.57h-3.56v-5.33h2.75c.27,1.8.54,3.52.81,5.33ZM71.18,15.32c1.47-.21,1.49-.21,1.71,1.14.21,1.29.39,2.58.6,3.94h-2.31v-5.08ZM71.16,31.4h4.03c.27,1.73.54,3.46.83,5.27h-4.85v-5.27ZM71.16,39.55h5.29c.27,1.7.53,3.38.8,5.12h-6.09v-5.12h0ZM85.96,47.51v9.33h-21.55v-9.33h21.55ZM66.79,15.28h1.53v5.11h-2.33c.27-1.76.53-3.41.8-5.11ZM65.5,23.66c.03-.18.32-.45.51-.47.75-.04,1.52-.01,2.34-.01v5.41h-3.62c.25-1.67.48-3.31.76-4.93ZM64.22,31.92c.03-.21.35-.54.54-.54,1.19-.06,2.37-.03,3.59-.03v5.38h-4.87c.24-1.65.47-3.23.73-4.8ZM63.04,39.55h5.3v5.12h-6.08c.26-1.74.52-3.42.78-5.12ZM42.52,11.09h5.66c.16,1.41.33,2.82.51,4.3h-6.65c.16-1.44.31-2.84.48-4.3ZM41.71,18.21h7.29c.2,1.73.41,3.46.6,5.26h-8.47c.19-1.76.39-3.48.59-5.26ZM40.81,26.27h3.95c1.49,0,2.99-.01,4.49.03.24,0,.68.25.71.44.25,1.95.45,3.94.68,5.98h-10.56c.24-2.15.48-4.25.73-6.45ZM37.31,35.55h17.74c-.47,3.06-.93,6.07-1.41,9.16h-8.51v2.7h16.42v9.39h-5.3v-6.14h-2.7v6.14h-5.44v-6.14h-2.69v6.16h-5.45v-6.17h-2.72v6.16h-5.35v-9.33h10.21v-2.72h-4.79v-9.22h0ZM29.22,29.47c1.31,1.05,2.58,2.07,4.08,3.29h-2.15v2.7h3.31v9.21h-5.24v-15.2ZM27.44,62.94c-.85,0-1.13-.24-1.05-1.08.06-.69.01-1.4.01-2.19h31.11v3.22c-.35.01-.65.04-.95.04-9.7,0-19.42-.02-29.12.01ZM68.17,66.17c-2.87,1.77-5.74,3.55-8.59,5.32-.37.24-.68.42-1.16.12-3-1.89-6.02-3.75-9.04-5.62-.09-.06-.18-.13-.41-.32h19.83c-.3.22-.45.37-.63.49ZM91.35,62.86h-31.02v-3.22h31.02v3.22ZM83.29,73.51v4.94c.16.09.32.16.48.25l.16.08.13.13s.84.85,1.95,1.67c.03-2.04.01-4.08.01-6.14v-.93h-2.75Z"/>
      <path class="cls-2" d="M92.64,84.25v2.64c-2.6.06-4.97-.54-7.09-1.94-1.31-.85-2.52-1.85-3.75-2.79-4.42-3.35-9.7-3.35-14.11-.01-.9.69-1.77,1.41-2.69,2.09-4.96,3.63-11.48,3.65-16.45.01-1.09-.8-2.12-1.67-3.22-2.46-3.95-2.86-9.18-2.86-13.11.01-1.05.77-2.03,1.59-3.06,2.36-5.04,3.72-11.55,3.74-16.61.04-.42-.3-.83-.63-1.23-.95-3.48-2.81-4.04-3.05-8.37-3.63v-2.79c1.43.25,2.84.42,4.2.78,2.09.56,3.79,1.85,5.42,3.18,1.8,1.46,3.62,2.84,6.01,3.22,3.24.51,6.28.06,8.95-2.01,1.29-.99,2.6-1.94,3.87-2.94.01-.01.03-.03.04-.03.85-.47,2.57-1.34,4.31-1.74.35-.09.69-.15,1.04-.18,1.95-.25,3.86-.12,5.8.32,0,0,1.28.35,3.22,1.44h.01c.18.2.41.32.63.37,0,0,.01.01.03.01.83.51,1.74,1.13,2.72,1.91-.03.03-.06.04-.09.08,4.24,3.83,10.93,4.72,17.21-1.58-.03-.01-.04-.03-.08-.04.56-.35,1.85-1.13,3.56-1.76.71-.21,1.4-.44,2.1-.66,1.04-.27,2.15-.42,3.29-.41h0c1.41.33,2.86.51,4.19.97,1.32.48,2.55,1.25,3.87,1.91,0,0,1.28,1.32,2.9,2.34h0c.11.21.29.36.53.51,1.56.97,3.24,1.58,5.09,1.64.28.02.56.07.85.1Z"/>
      <path class="cls-2" d="M51.2,38.18h-9.83v2.62h9.83v-2.62Z"/>
      <path class="cls-2" d="M77.5,50.87h-2.64v2.6h2.64v-2.6Z"/>
      <path class="cls-2" d="M72.05,50.85h-2.57v2.66h2.57v-2.66Z"/>
      <path class="cls-2" d="M82.78,50.85h-2.45v2.66h2.45v-2.66Z"/>
    </g>
  </g>
</svg>