<?xml version="1.0" encoding="UTF-8"?>
<svg id="Layer_2" data-name="Layer 2" xmlns="http://www.w3.org/2000/svg" viewBox="0 0 81.87 81.88">
  <defs>
    <style>
      .cls-1 {
        fill: #2350a3;
      }

      .cls-2 {
        fill: #30aa49;
      }
    </style>
  </defs>
  <g id="Layer_1-2" data-name="Layer 1">
    <g>
      <path class="cls-1" d="M1.03,81.78c-1.05-.77-1.31-1.74-.7-2.57.4-.55.97-.68,1.61-.68,4.76,0,9.52,0,14.28,0,1.05,0,1.05,0,1.05-1.06v-14.12c.01-1.34.67-2.17,1.71-2.16,1.04,0,1.7.83,1.7,2.18,0,4.71,0,9.41,0,14.12,0,1.04,0,1.04,1.07,1.04q1.9,0,1.9-1.88c0-14.54,0-29.09,0-43.64,0-.62-.05-1.11-.7-1.44-1.16-.59-2.27.04-2.27,1.35,0,4.97,0,9.95,0,14.92,0,1.5-.59,2.34-1.68,2.36-1.1.02-1.73-.84-1.74-2.38v-12.92c0-.89,0-.9-.78-.45-1.89,1.08-3.76,2.21-5.68,3.25-2.88,1.55-5.93,1.94-9.12,1.22-1.49-.34-1.96-1.18-1.5-2.66,1.03-3.3,3.08-5.79,6.06-7.51,3.38-1.96,6.76-3.93,10.16-5.86.54-.31.72-.67.71-1.27-.02-3.86-.01-7.71,0-11.57,0-3.47,1.15-6.5,3.45-9.11,1.09-1.23,2.13-1.24,3.23-.01,2.26,2.52,3.41,5.49,3.43,8.87.03,3.91.02,7.82,0,11.73,0,.67.22,1.06.8,1.39,3.47,1.97,6.93,3.95,10.36,5.98,2.89,1.7,4.84,4.19,5.82,7.41.45,1.46-.05,2.29-1.55,2.62-3.55.79-6.86.16-9.96-1.69-1.67-.99-3.36-1.94-5.03-2.93-.44-.27-.59-.2-.59.33,0,7.39.01,14.78.02,22.18,0,.01.03.03.09.09.69-2.54,1.37-5.05,2.05-7.55.21-.8.42-1.6.65-2.38.54-1.82,1.96-2.88,3.84-2.88,12.29,0,24.57,0,36.86,0,1.99,0,3.35,1.07,3.91,3.1,1.44,5.25,2.86,10.51,4.29,15.77.54,2,1.02,4.02,1.65,6,.89,2.84-1.31,5.34-4,5.28-5.69-.12-11.38-.02-17.07-.05-.81,0-1.09.24-1.03,1.04.06.8.05,1.6,0,2.39-.05.73.21.96.95.96,6.19-.03,12.39-.01,18.59-.01.64,0,1.28.03,1.92,0,.89-.06,1.55.25,2,1.02,0,.75.29,1.77-.08,2.15-.37.37-1.4.08-2.15.08-26.16,0-52.34,0-78.51,0ZM36.61,74.18c-2.9,0-5.79.02-8.69-.01-.66,0-.9.21-.87.87.04.93.03,1.86,0,2.79,0,.49.15.72.69.72,5.85-.01,11.69-.01,17.54,0,.52,0,.71-.19.7-.7-.02-.93-.05-1.86,0-2.79.05-.73-.26-.89-.93-.88-2.82.03-5.63.01-8.45.01ZM45.3,70.87c1.46,0,2.93-.01,4.39,0,.53,0,.77-.15.76-.72-.03-1.41-.02-2.82,0-4.23,0-.52-.19-.7-.7-.69-2.66.02-5.32.02-7.98,0-.55,0-.75.24-.8.75-.16,1.4-.34,2.79-.57,4.18-.09.55.07.72.6.71,1.43-.02,2.87,0,4.3,0ZM58.9,70.87c1.46,0,2.93,0,4.39,0,.42,0,.66-.07.58-.57-.22-1.49-.43-2.99-.61-4.5-.06-.5-.35-.57-.77-.57-2.63,0-5.27.01-7.9,0-.56,0-.75.21-.74.75.02,1.38.02,2.77,0,4.15,0,.54.19.76.75.75,1.44-.03,2.87,0,4.31,0ZM72.16,70.87h0c1.41,0,2.82.01,4.22,0,.75-.01.96-.3.77-1.01-.34-1.31-.71-2.61-1.05-3.92-.12-.48-.35-.7-.88-.69-2.63.02-5.26.02-7.88,0-.6,0-.73.26-.65.78.2,1.33.44,2.67.56,4.02.06.72.37.87,1.01.85,1.3-.04,2.6,0,3.9,0ZM32.14,70.87c1.3,0,2.61-.03,3.91.01.63.02.92-.2.99-.83.15-1.37.31-2.74.54-4.1.11-.63-.12-.72-.65-.72-2.61.01-5.21.02-7.81,0-.52,0-.77.16-.9.67-.32,1.26-.68,2.51-1.01,3.77-.24.91-.05,1.19.88,1.2,1.35.01,2.71,0,4.06,0ZM46.03,61.93c1.25,0,2.5,0,3.74,0,.46,0,.69-.14.68-.64-.02-1.46-.01-2.92,0-4.38,0-.43-.16-.63-.61-.63-2.34,0-4.67,0-7,0-.39,0-.57.14-.62.54-.18,1.44-.4,2.89-.61,4.33-.08.53.09.79.68.77,1.25-.02,2.5,0,3.74,0ZM58.29,61.93c1.17,0,2.34-.03,3.51,0,.7.02,1.01-.09.84-.93-.26-1.3-.39-2.62-.53-3.94-.06-.55-.27-.79-.85-.79-2.2.02-4.41.02-6.61,0-.59,0-.8.21-.79.79.03,1.35.03,2.71,0,4.06-.02.65.26.82.85.8,1.19-.03,2.39,0,3.58,0ZM70.55,61.93c1.28,0,2.55-.01,3.82,0,.48,0,.61-.15.48-.61-.42-1.48-.82-2.96-1.22-4.45-.1-.39-.29-.58-.71-.58-2.31,0-4.62,0-6.93,0-.44,0-.61.12-.53.61.22,1.41.39,2.83.56,4.26.07.59.35.8.95.78,1.19-.04,2.39,0,3.58,0ZM33.74,61.93c1.25,0,2.5-.01,3.74,0,.46,0,.66-.15.72-.62.17-1.42.39-2.84.59-4.25.08-.53-.09-.78-.68-.77-2.23.02-4.46.01-6.69,0-.41,0-.64.14-.75.54-.39,1.49-.79,2.98-1.21,4.45-.15.52.03.65.53.64,1.24-.01,2.49,0,3.74,0ZM39.12,35.82c.11,0,.21,0,.32,0,.26-.01.6.11.75-.11.19-.29-.12-.53-.27-.77-.7-1.15-1.6-2.14-2.75-2.83-2.98-1.79-6.01-3.51-9.01-5.26-.37-.21-.58-.17-.7.25-.19.64-.48,1.26-.96,1.72-.5.49-.38.72.17,1.03,2.77,1.57,5.52,3.19,8.29,4.76,1.28.73,2.66,1.17,4.16,1.21ZM5.12,35.81c1.33,0,2.54-.27,3.61-.86,3.09-1.7,6.14-3.49,9.21-5.23.34-.19.4-.38.11-.67-.54-.53-.91-1.17-1.12-1.9-.16-.54-.41-.48-.8-.24-2.75,1.6-5.51,3.19-8.27,4.79-1.31.76-2.41,1.74-3.23,3.02-.19.3-.62.62-.44.96.17.35.67.1.94.15ZM22.23,4.41c-.83.92-1.64,2.85-1.66,4.37-.05,3.53-.03,7.06-.04,10.6,0,.41.12.55.57.5.66-.07,1.33-.1,1.98-.02.58.07.75-.06.75-.64-.02-3.4.02-6.8-.04-10.2-.04-1.67-.61-3.2-1.56-4.61ZM46.54,53c1.03,0,2.07-.02,3.1,0,.56.02.82-.14.81-.75-.03-1.38-.03-2.76,0-4.14,0-.53-.16-.76-.73-.75-1.83.03-3.66.03-5.49,0-.53,0-.78.2-.85.7-.18,1.44-.35,2.89-.56,4.33-.07.48.08.61.53.61,1.06-.02,2.13,0,3.19,0ZM57.63,53c1.04,0,2.07-.02,3.11,0,.56.01.79-.18.7-.75-.21-1.44-.42-2.89-.61-4.33-.05-.39-.2-.56-.6-.56-1.91,0-3.83.01-5.74,0-.5,0-.65.23-.64.68,0,1.44,0,2.87,0,4.3,0,.48.2.66.67.66,1.04-.02,2.08,0,3.11,0ZM68.7,53c1.06,0,2.12-.02,3.18,0,.49.01.69-.1.53-.63-.4-1.4-.79-2.81-1.15-4.22-.16-.6-.52-.8-1.1-.79-1.72.01-3.45.02-5.17,0-.61,0-.82.21-.73.8.21,1.39.43,2.77.58,4.17.06.57.32.69.83.68,1.01-.03,2.02-.01,3.03-.01ZM35.52,53c1.04,0,2.08-.02,3.11,0,.53.01.75-.2.81-.73.16-1.4.34-2.79.56-4.18.08-.53-.04-.74-.59-.73-1.78.02-3.57.01-5.34,0-.56,0-.9.23-1.04.78-.38,1.41-.75,2.82-1.15,4.23-.15.53.04.65.53.64,1.03-.02,2.07,0,3.11,0ZM52.25,74.18c-.75,0-1.49,0-2.23,0-.44,0-.63.18-.63.62,0,1.04,0,2.08,0,3.11,0,.42.16.64.61.64,1.44,0,2.87-.01,4.31,0,.44,0,.62-.17.62-.62-.01-1.04-.02-2.08,0-3.11,0-.49-.21-.65-.68-.64-.66.02-1.33,0-1.99,0ZM22.13,27.51c1.25.01,2.17-.86,2.19-2.12.03-1.23-.96-2.27-2.16-2.26-1.17,0-2.14.99-2.15,2.19,0,1.26.88,2.17,2.12,2.18Z"/>
      <g>
        <path class="cls-2" d="M81.77,20.5c-.45.77-1.12,1.06-2,1.02-1.14-.05-2.28,0-3.42-.01-1.11-.01-1.82-.7-1.8-1.69.02-.96.72-1.6,1.8-1.61,1.14-.01,2.29.03,3.42-.01.89-.04,1.55.25,2,1.02v1.28Z"/>
        <path class="cls-2" d="M71.55,19.83c.06,5.15-4.31,9.54-9.53,9.6-5.14.06-9.55-4.31-9.6-9.53-.05-5.15,4.31-9.55,9.54-9.6,5.15-.06,9.54,4.3,9.6,9.53ZM61.93,26.04c3.37.02,6.19-2.73,6.23-6.08.04-3.41-2.73-6.24-6.12-6.26-3.37-.02-6.19,2.73-6.23,6.08-.04,3.41,2.73,6.24,6.12,6.26Z"/>
        <path class="cls-2" d="M53.58,9.57c-.01.9-.31,1.41-.9,1.71-.59.3-1.23.31-1.72-.14-1.09-1.01-2.15-2.05-3.15-3.14-.59-.65-.47-1.55.14-2.16.61-.61,1.51-.74,2.16-.15,1.1,1,2.12,2.08,3.15,3.14.24.24.32.6.32.73Z"/>
        <path class="cls-2" d="M72.21,11.46c-.81,0-1.32-.29-1.63-.87-.32-.62-.32-1.28.16-1.79.99-1.07,2.02-2.11,3.09-3.09.65-.59,1.54-.49,2.16.11.62.6.76,1.5.18,2.16-.99,1.1-2.08,2.12-3.14,3.16-.25.24-.59.33-.82.32Z"/>
        <path class="cls-2" d="M53.57,29.92c.02.52-.2.93-.55,1.28-.88.88-1.75,1.78-2.65,2.64-.79.75-1.71.76-2.41.08-.7-.69-.71-1.64.02-2.41.9-.94,1.82-1.85,2.76-2.75.53-.51,1.17-.63,1.84-.34.65.27.96.8.99,1.49Z"/>
        <path class="cls-2" d="M72.01,28.27c.52-.02.93.19,1.28.54.88.88,1.78,1.75,2.64,2.65.78.81.78,1.77.05,2.47-.7.67-1.63.65-2.41-.11-.91-.88-1.81-1.79-2.7-2.7-.51-.53-.64-1.16-.36-1.84.27-.65.79-.96,1.49-1.01Z"/>
        <path class="cls-2" d="M63.62,3.64c0,.69.03,1.38,0,2.07-.04.94-.74,1.6-1.64,1.6s-1.62-.66-1.64-1.59c-.03-1.38-.04-2.76,0-4.13.03-.94.75-1.56,1.67-1.54.88.02,1.55.64,1.6,1.54.03.69,0,1.38,0,2.07Z"/>
        <path class="cls-2" d="M45.8,21.51c-.69,0-1.38.02-2.07,0-.95-.04-1.59-.71-1.59-1.63s.63-1.62,1.57-1.65c1.38-.03,2.76-.04,4.13,0,.93.02,1.58.76,1.56,1.66-.02.87-.65,1.56-1.54,1.6-.69.04-1.38,0-2.07.01,0,0,0,0,0,0Z"/>
        <path class="cls-2" d="M63.62,36.06c0,.69.03,1.38,0,2.07-.04.95-.72,1.58-1.64,1.58s-1.61-.64-1.64-1.59c-.03-1.38-.03-2.76,0-4.13.02-.89.73-1.53,1.6-1.55.9-.02,1.63.63,1.67,1.56.04.68,0,1.37,0,2.06Z"/>
      </g>
      <path class="cls-1" d="M20.66,55.68c0,.88-.79,1.69-1.67,1.7-.88,0-1.69-.79-1.7-1.67,0-.88.79-1.69,1.67-1.7.88,0,1.69.79,1.7,1.67Z"/>
    </g>
  </g>
</svg>