<?xml version="1.0" encoding="UTF-8"?>
<svg id="Layer_2" data-name="Layer 2" xmlns="http://www.w3.org/2000/svg" viewBox="0 0 71.19 50.14">
  <defs>
    <style>
      .cls-1 {
        fill: #14a74a;
      }
    </style>
  </defs>
  <g id="Layer_1-2" data-name="Layer 1">
    <g>
      <path class="cls-1" d="M0,4.82v21.54c0,2.14.69,4.22,1.96,5.94l13.25,17.84h17.12s.76-15.9-.23-18.96c-1.12-3.45-9.4-13.38-9.4-13.38,0,0-2.52-2.9-5.66.38s4.89,10.93,4.89,10.93l-2.83,3.59-9.27-9.97c-1.17-1.26-1.82-2.91-1.82-4.63V4.65C8.03,2.51,6.62.53,4.52.09c-.18-.04-.36-.08-.55-.08C2.1-.04,1.46.79.86,1.77.29,2.69,0,3.74,0,4.82Z"/>
      <path class="cls-1" d="M71.19,4.82v21.54c0,2.14-.69,4.22-1.96,5.94l-13.25,17.84h-17.12s-.76-15.9.23-18.96c1.12-3.45,9.4-13.38,9.4-13.38,0,0,2.52-2.9,5.66.38s-4.89,10.93-4.89,10.93l2.83,3.59,9.27-9.97c1.17-1.26,1.82-2.91,1.82-4.63V4.65c0-2.14,1.41-4.12,3.5-4.56.18-.04.36-.08.55-.08,1.87-.04,2.51.79,3.12,1.77.57.92.86,1.97.86,3.05Z"/>
    </g>
  </g>
</svg>