<?xml version="1.0" encoding="UTF-8"?>
<svg id="Layer_2" data-name="Layer 2" xmlns="http://www.w3.org/2000/svg" viewBox="0 0 29.46 23.99">
  <defs>
    <style>
      .cls-1 {
        fill: #2350a3;
      }

      .cls-2 {
        fill: #15a54a;
      }
    </style>
  </defs>
  <g id="Layer_1-2" data-name="Layer 1">
    <g>
      <path class="cls-1" d="M7.47,20.18c0,.76-.18,1.36-.54,2.02h8.54c.52,0,.89.42.89.9s-.36.89-.89.89H3.74C1.64,23.98,0,22.3,0,20.22v-2.6c0-2.37,1.85-4.34,4.22-4.36h1.47s0-8.86,0-8.86C5.69,1.93,7.64,0,10.11,0h11.36c2.43,0,4.42,1.89,4.42,4.34v5.86c0,.5-.41.87-.86.89-.48.01-.92-.36-.92-.88v-5.81c0-1.44-1.12-2.6-2.58-2.6h-11.48c-1.46,0-2.57,1.16-2.57,2.61v15.78ZM5.69,20.22v-5.15c-.42-.06-.77,0-1.16-.02-1.51-.08-2.75,1.07-2.75,2.58v2.6c0,1.12.9,1.99,1.97,1.98s1.93-.87,1.93-1.98Z"/>
      <path class="cls-2" d="M19.77,23.91c-.54.09-1.02-.11-1.36-.46-.32-.33-.48-.83-.39-1.33l.33-1.96c.05-.29.16-.57.38-.78l6.11-6.11c1.08-1.09,2.81-1.07,3.86,0s1.01,2.77-.07,3.85l-6.02,6.01c-.24.24-.51.39-.84.44l-1.98.34ZM26.8,16.38c.28-.27.47-.44.67-.68.33-.39.24-.94-.11-1.24s-.89-.32-1.23.03l-.61.62,1.28,1.28ZM21.4,21.8l4.13-4.13-1.28-1.29-4.15,4.15-.25,1.56,1.56-.29Z"/>
      <path class="cls-1" d="M20.63,12.88h-9.66c-.52,0-.88-.4-.9-.86-.01-.49.36-.92.9-.92h9.63c.52,0,.89.39.9.86s-.32.91-.88.91Z"/>
      <path class="cls-1" d="M20.64,8.9h-9.67c-.53,0-.9-.42-.9-.89s.36-.89.89-.89h9.63c.51,0,.87.37.9.83s-.3.94-.87.94Z"/>
      <path class="cls-1" d="M15.76,15.09c.55,0,.92.41.92.89s-.37.88-.89.88h-4.82c-.52,0-.89-.41-.89-.88s.37-.89.89-.89h4.79Z"/>
    </g>
  </g>
</svg>